<mxfile host="app.diagrams.net" modified="2020-09-24T05:27:01.040Z" agent="5.0 (Windows NT 10.0; Win64; x64) AppleWebKit/537.36 (KHTML, like Gecko) Chrome/85.0.4183.121 Safari/537.36" etag="pfyWKLU3rGeY_PFOmXC-" version="13.7.4" type="github" pages="2">
  <diagram id="wGJdblhSztV3dcYmF5PC" name="Course">
    <mxGraphModel dx="744" dy="393" grid="1" gridSize="10" guides="1" tooltips="1" connect="1" arrows="1" fold="1" page="1" pageScale="1" pageWidth="850" pageHeight="1100" math="0" shadow="0">
      <root>
        <mxCell id="0" />
        <mxCell id="1" parent="0" />
        <mxCell id="epnlr4NnKCzLOk_xcdM1-24" value="" style="rounded=0;whiteSpace=wrap;html=1;" parent="1" vertex="1">
          <mxGeometry x="40" y="180" width="490" height="740" as="geometry" />
        </mxCell>
        <mxCell id="epnlr4NnKCzLOk_xcdM1-1" value="" style="rounded=0;whiteSpace=wrap;html=1;" parent="1" vertex="1">
          <mxGeometry x="240" y="200" width="120" height="30" as="geometry" />
        </mxCell>
        <mxCell id="epnlr4NnKCzLOk_xcdM1-2" value="Course name" style="text;html=1;strokeColor=none;fillColor=none;align=center;verticalAlign=middle;whiteSpace=wrap;rounded=0;" parent="1" vertex="1">
          <mxGeometry x="150" y="205" width="80" height="20" as="geometry" />
        </mxCell>
        <mxCell id="epnlr4NnKCzLOk_xcdM1-3" value="" style="rounded=0;whiteSpace=wrap;html=1;" parent="1" vertex="1">
          <mxGeometry x="240" y="260" width="120" height="30" as="geometry" />
        </mxCell>
        <mxCell id="epnlr4NnKCzLOk_xcdM1-4" value="Course Code" style="text;html=1;strokeColor=none;fillColor=none;align=center;verticalAlign=middle;whiteSpace=wrap;rounded=0;" parent="1" vertex="1">
          <mxGeometry x="150" y="265" width="80" height="20" as="geometry" />
        </mxCell>
        <mxCell id="epnlr4NnKCzLOk_xcdM1-5" value="" style="rounded=0;whiteSpace=wrap;html=1;" parent="1" vertex="1">
          <mxGeometry x="240" y="310" width="120" height="30" as="geometry" />
        </mxCell>
        <mxCell id="epnlr4NnKCzLOk_xcdM1-6" value="Grading System" style="text;html=1;strokeColor=none;fillColor=none;align=center;verticalAlign=middle;whiteSpace=wrap;rounded=0;" parent="1" vertex="1">
          <mxGeometry x="140" y="315" width="90" height="20" as="geometry" />
        </mxCell>
        <mxCell id="epnlr4NnKCzLOk_xcdM1-7" value="" style="triangle;whiteSpace=wrap;html=1;" parent="1" vertex="1">
          <mxGeometry x="340" y="310" width="20" height="30" as="geometry" />
        </mxCell>
        <mxCell id="epnlr4NnKCzLOk_xcdM1-8" value="Enabled" style="rounded=0;whiteSpace=wrap;html=1;" parent="1" vertex="1">
          <mxGeometry x="240" y="360" width="120" height="30" as="geometry" />
        </mxCell>
        <mxCell id="epnlr4NnKCzLOk_xcdM1-9" value="Enable Elective" style="text;html=1;strokeColor=none;fillColor=none;align=center;verticalAlign=middle;whiteSpace=wrap;rounded=0;" parent="1" vertex="1">
          <mxGeometry x="140" y="365" width="90" height="20" as="geometry" />
        </mxCell>
        <mxCell id="epnlr4NnKCzLOk_xcdM1-10" value="" style="triangle;whiteSpace=wrap;html=1;" parent="1" vertex="1">
          <mxGeometry x="340" y="360" width="20" height="30" as="geometry" />
        </mxCell>
        <mxCell id="epnlr4NnKCzLOk_xcdM1-11" value="" style="rounded=0;whiteSpace=wrap;html=1;" parent="1" vertex="1">
          <mxGeometry x="250" y="420" width="120" height="80" as="geometry" />
        </mxCell>
        <mxCell id="epnlr4NnKCzLOk_xcdM1-12" value="Course Description" style="text;html=1;strokeColor=none;fillColor=none;align=center;verticalAlign=middle;whiteSpace=wrap;rounded=0;" parent="1" vertex="1">
          <mxGeometry x="160" y="425" width="80" height="20" as="geometry" />
        </mxCell>
        <mxCell id="epnlr4NnKCzLOk_xcdM1-15" value="Sem Based" style="rounded=0;whiteSpace=wrap;html=1;" parent="1" vertex="1">
          <mxGeometry x="250" y="520" width="120" height="30" as="geometry" />
        </mxCell>
        <mxCell id="epnlr4NnKCzLOk_xcdM1-16" value="Course Type" style="text;html=1;strokeColor=none;fillColor=none;align=center;verticalAlign=middle;whiteSpace=wrap;rounded=0;" parent="1" vertex="1">
          <mxGeometry x="150" y="525" width="90" height="20" as="geometry" />
        </mxCell>
        <mxCell id="epnlr4NnKCzLOk_xcdM1-17" value="" style="triangle;whiteSpace=wrap;html=1;" parent="1" vertex="1">
          <mxGeometry x="350" y="520" width="20" height="30" as="geometry" />
        </mxCell>
        <mxCell id="epnlr4NnKCzLOk_xcdM1-18" value="" style="rounded=0;whiteSpace=wrap;html=1;" parent="1" vertex="1">
          <mxGeometry x="250" y="580" width="120" height="30" as="geometry" />
        </mxCell>
        <mxCell id="epnlr4NnKCzLOk_xcdM1-19" value="No. Of Sem/year" style="text;html=1;strokeColor=none;fillColor=none;align=center;verticalAlign=middle;whiteSpace=wrap;rounded=0;" parent="1" vertex="1">
          <mxGeometry x="150" y="585" width="90" height="20" as="geometry" />
        </mxCell>
        <mxCell id="epnlr4NnKCzLOk_xcdM1-20" value="" style="triangle;whiteSpace=wrap;html=1;" parent="1" vertex="1">
          <mxGeometry x="350" y="580" width="20" height="30" as="geometry" />
        </mxCell>
        <mxCell id="epnlr4NnKCzLOk_xcdM1-21" value="" style="rounded=0;whiteSpace=wrap;html=1;" parent="1" vertex="1">
          <mxGeometry x="250" y="640" width="120" height="30" as="geometry" />
        </mxCell>
        <mxCell id="epnlr4NnKCzLOk_xcdM1-22" value="Attendance Type" style="text;html=1;strokeColor=none;fillColor=none;align=center;verticalAlign=middle;whiteSpace=wrap;rounded=0;" parent="1" vertex="1">
          <mxGeometry x="150" y="645" width="90" height="20" as="geometry" />
        </mxCell>
        <mxCell id="epnlr4NnKCzLOk_xcdM1-23" value="" style="triangle;whiteSpace=wrap;html=1;" parent="1" vertex="1">
          <mxGeometry x="350" y="640" width="20" height="30" as="geometry" />
        </mxCell>
        <mxCell id="epnlr4NnKCzLOk_xcdM1-25" value="SAVE" style="rounded=0;whiteSpace=wrap;html=1;fillColor=#dae8fc;strokeColor=#6c8ebf;" parent="1" vertex="1">
          <mxGeometry x="250" y="830" width="120" height="30" as="geometry" />
        </mxCell>
        <mxCell id="epnlr4NnKCzLOk_xcdM1-26" value="" style="rounded=0;whiteSpace=wrap;html=1;" parent="1" vertex="1">
          <mxGeometry x="250" y="690" width="120" height="30" as="geometry" />
        </mxCell>
        <mxCell id="epnlr4NnKCzLOk_xcdM1-27" value="Course Status" style="text;html=1;strokeColor=none;fillColor=none;align=center;verticalAlign=middle;whiteSpace=wrap;rounded=0;" parent="1" vertex="1">
          <mxGeometry x="150" y="695" width="90" height="20" as="geometry" />
        </mxCell>
        <mxCell id="epnlr4NnKCzLOk_xcdM1-28" value="" style="triangle;whiteSpace=wrap;html=1;" parent="1" vertex="1">
          <mxGeometry x="350" y="690" width="20" height="30" as="geometry" />
        </mxCell>
        <mxCell id="epnlr4NnKCzLOk_xcdM1-29" value="" style="rounded=0;whiteSpace=wrap;html=1;" parent="1" vertex="1">
          <mxGeometry x="250" y="750" width="70" height="30" as="geometry" />
        </mxCell>
        <mxCell id="epnlr4NnKCzLOk_xcdM1-30" value="Effective start date" style="text;html=1;strokeColor=none;fillColor=none;align=center;verticalAlign=middle;whiteSpace=wrap;rounded=0;" parent="1" vertex="1">
          <mxGeometry x="150" y="755" width="90" height="20" as="geometry" />
        </mxCell>
        <mxCell id="epnlr4NnKCzLOk_xcdM1-32" value="" style="rounded=0;whiteSpace=wrap;html=1;" parent="1" vertex="1">
          <mxGeometry x="440" y="750" width="50" height="30" as="geometry" />
        </mxCell>
        <mxCell id="epnlr4NnKCzLOk_xcdM1-33" value="end date" style="text;html=1;strokeColor=none;fillColor=none;align=center;verticalAlign=middle;whiteSpace=wrap;rounded=0;" parent="1" vertex="1">
          <mxGeometry x="350" y="755" width="90" height="20" as="geometry" />
        </mxCell>
      </root>
    </mxGraphModel>
  </diagram>
  <diagram id="Mv-qZ5ulI9xvGLVxheHz" name="course batch">
    <mxGraphModel dx="744" dy="349" grid="1" gridSize="10" guides="1" tooltips="1" connect="1" arrows="1" fold="1" page="1" pageScale="1" pageWidth="850" pageHeight="1100" math="0" shadow="0">
      <root>
        <mxCell id="K7Svc7h2CrGcHD0reqgn-0" />
        <mxCell id="K7Svc7h2CrGcHD0reqgn-1" parent="K7Svc7h2CrGcHD0reqgn-0" />
        <mxCell id="ZY8cEQ-EKcoBP6xcao9J-0" value="" style="rounded=0;whiteSpace=wrap;html=1;" vertex="1" parent="K7Svc7h2CrGcHD0reqgn-1">
          <mxGeometry x="280" y="120" width="120" height="30" as="geometry" />
        </mxCell>
        <mxCell id="ZY8cEQ-EKcoBP6xcao9J-1" value="Batch Name" style="text;html=1;strokeColor=none;fillColor=none;align=center;verticalAlign=middle;whiteSpace=wrap;rounded=0;" vertex="1" parent="K7Svc7h2CrGcHD0reqgn-1">
          <mxGeometry x="190" y="125" width="80" height="20" as="geometry" />
        </mxCell>
        <mxCell id="ZY8cEQ-EKcoBP6xcao9J-2" value="" style="rounded=0;whiteSpace=wrap;html=1;" vertex="1" parent="K7Svc7h2CrGcHD0reqgn-1">
          <mxGeometry x="280" y="180" width="120" height="30" as="geometry" />
        </mxCell>
        <mxCell id="ZY8cEQ-EKcoBP6xcao9J-3" value="Start Date" style="text;html=1;strokeColor=none;fillColor=none;align=center;verticalAlign=middle;whiteSpace=wrap;rounded=0;" vertex="1" parent="K7Svc7h2CrGcHD0reqgn-1">
          <mxGeometry x="190" y="185" width="80" height="20" as="geometry" />
        </mxCell>
        <mxCell id="ZY8cEQ-EKcoBP6xcao9J-4" value="" style="rounded=0;whiteSpace=wrap;html=1;" vertex="1" parent="K7Svc7h2CrGcHD0reqgn-1">
          <mxGeometry x="280" y="240" width="120" height="30" as="geometry" />
        </mxCell>
        <mxCell id="ZY8cEQ-EKcoBP6xcao9J-5" value="End Date" style="text;html=1;strokeColor=none;fillColor=none;align=center;verticalAlign=middle;whiteSpace=wrap;rounded=0;" vertex="1" parent="K7Svc7h2CrGcHD0reqgn-1">
          <mxGeometry x="190" y="245" width="80" height="20" as="geometry" />
        </mxCell>
        <mxCell id="Ul4KpgVXhBFguk-oMfVs-0" value="" style="rounded=0;whiteSpace=wrap;html=1;" vertex="1" parent="K7Svc7h2CrGcHD0reqgn-1">
          <mxGeometry x="280" y="300" width="120" height="30" as="geometry" />
        </mxCell>
        <mxCell id="Ul4KpgVXhBFguk-oMfVs-1" value="Academic Year" style="text;html=1;strokeColor=none;fillColor=none;align=center;verticalAlign=middle;whiteSpace=wrap;rounded=0;" vertex="1" parent="K7Svc7h2CrGcHD0reqgn-1">
          <mxGeometry x="180" y="305" width="90" height="20" as="geometry" />
        </mxCell>
        <mxCell id="Ul4KpgVXhBFguk-oMfVs-2" value="" style="triangle;whiteSpace=wrap;html=1;" vertex="1" parent="K7Svc7h2CrGcHD0reqgn-1">
          <mxGeometry x="380" y="300" width="20" height="30" as="geometry" />
        </mxCell>
        <mxCell id="Ul4KpgVXhBFguk-oMfVs-3" value="" style="rounded=0;whiteSpace=wrap;html=1;" vertex="1" parent="K7Svc7h2CrGcHD0reqgn-1">
          <mxGeometry x="120" y="360" width="480" height="200" as="geometry" />
        </mxCell>
        <mxCell id="Ul4KpgVXhBFguk-oMfVs-4" value="Multiple select&amp;nbsp;" style="rounded=0;whiteSpace=wrap;html=1;" vertex="1" parent="K7Svc7h2CrGcHD0reqgn-1">
          <mxGeometry x="270" y="390" width="120" height="30" as="geometry" />
        </mxCell>
        <mxCell id="Ul4KpgVXhBFguk-oMfVs-5" value="Subjects" style="text;html=1;strokeColor=none;fillColor=none;align=center;verticalAlign=middle;whiteSpace=wrap;rounded=0;" vertex="1" parent="K7Svc7h2CrGcHD0reqgn-1">
          <mxGeometry x="170" y="395" width="90" height="20" as="geometry" />
        </mxCell>
        <mxCell id="Ul4KpgVXhBFguk-oMfVs-6" value="" style="triangle;whiteSpace=wrap;html=1;" vertex="1" parent="K7Svc7h2CrGcHD0reqgn-1">
          <mxGeometry x="370" y="390" width="20" height="30" as="geometry" />
        </mxCell>
        <mxCell id="Ul4KpgVXhBFguk-oMfVs-7" value="Subject 1" style="rounded=0;whiteSpace=wrap;html=1;" vertex="1" parent="K7Svc7h2CrGcHD0reqgn-1">
          <mxGeometry x="170" y="440" width="330" height="20" as="geometry" />
        </mxCell>
        <mxCell id="Ul4KpgVXhBFguk-oMfVs-8" value="Subject 2" style="rounded=0;whiteSpace=wrap;html=1;" vertex="1" parent="K7Svc7h2CrGcHD0reqgn-1">
          <mxGeometry x="170" y="460" width="330" height="20" as="geometry" />
        </mxCell>
        <mxCell id="Ul4KpgVXhBFguk-oMfVs-9" value="Subject 3" style="rounded=0;whiteSpace=wrap;html=1;" vertex="1" parent="K7Svc7h2CrGcHD0reqgn-1">
          <mxGeometry x="170" y="480" width="330" height="20" as="geometry" />
        </mxCell>
      </root>
    </mxGraphModel>
  </diagram>
</mxfile>
